<?xml version="1.0" encoding="UTF-8"?>
<svg version="1.1" xmlns="http://www.w3.org/2000/svg" width="512" height="289">
<path d="M0 0 C1.10330154 -0.00426498 2.20660309 -0.00852997 3.34333801 -0.01292419 C5.16750244 -0.01224442 5.16750244 -0.01224442 7.02851868 -0.0115509 C8.94329765 -0.01658882 8.94329765 -0.01658882 10.89675903 -0.02172852 C14.40526795 -0.03058045 17.91375249 -0.03290722 21.42227149 -0.0335443 C24.35191665 -0.03449317 27.28155613 -0.0381715 30.2111991 -0.0417164 C37.12687105 -0.04986665 44.04252998 -0.05230024 50.95820618 -0.05158997 C58.08587151 -0.05099005 65.21346094 -0.06152332 72.34110707 -0.07733363 C78.4626535 -0.09042713 84.58417519 -0.09577305 90.7057355 -0.09513456 C94.36069167 -0.09487996 98.0155805 -0.09770954 101.67052269 -0.10831261 C105.75214658 -0.1198291 109.83360174 -0.11523568 113.91523743 -0.10920715 C115.12122589 -0.11482666 116.32721436 -0.12044617 117.56974792 -0.12623596 C131.58803738 -0.07361423 131.58803738 -0.07361423 134.79536438 3.13371277 C134.9682523 6.2111559 135.07953405 9.2682322 135.14692688 12.34855652 C135.18165604 13.73766991 135.18165604 13.73766991 135.21708679 15.15484619 C135.26480112 17.11771518 135.31002588 19.08064599 135.35298157 21.04362488 C135.4200037 24.05500707 135.4977706 27.06597897 135.57661438 30.07707214 C135.62153504 31.98005171 135.66582684 33.88304624 135.70942688 35.78605652 C135.7452739 37.14391518 135.7452739 37.14391518 135.78184509 38.52920532 C135.79871368 39.36669815 135.81558228 40.20419098 135.83296204 41.06706238 C135.85841599 42.17506447 135.85841599 42.17506447 135.88438416 43.30545044 C135.79536438 45.13371277 135.79536438 45.13371277 134.79536438 47.13371277 C132.23286438 47.75871277 132.23286438 47.75871277 129.79536438 48.13371277 C127.74529141 44.89675544 126.02351002 41.57810344 124.35786438 38.13371277 C120.84548653 31.11934871 116.98446719 26.48157927 109.79536438 23.13371277 C102.66287563 20.91020945 95.73115775 20.7048216 88.29536438 20.50871277 C87.09138 20.47004089 85.88739563 20.43136902 84.64692688 20.39152527 C81.69655319 20.29786261 78.74617582 20.21213753 75.79536438 20.13371277 C75.81025834 33.91225785 75.85193839 47.69043991 75.92745495 61.46879387 C75.96168967 67.86723864 75.98682955 74.26544552 75.99092102 80.66398621 C75.99521135 86.84338063 76.02373635 93.02223872 76.06879616 99.20146561 C76.08174745 101.55442807 76.08608729 103.90745479 76.08151817 106.26044846 C76.07659563 109.56627987 76.10278047 112.87055372 76.13594055 116.17619324 C76.12300209 117.62305763 76.12300209 117.62305763 76.10980225 119.09915161 C76.22456525 125.96100403 77.86600023 131.44034265 81.79536438 137.13371277 C84.73594036 139.61919054 87.99268428 140.8483154 91.60786438 142.13371277 C93.79536438 143.13371277 93.79536438 143.13371277 95.10786438 145.25871277 C95.33473938 145.87746277 95.56161438 146.49621277 95.79536438 147.13371277 C94.0779934 148.85108375 91.81262696 148.27010425 89.46870422 148.27897644 C87.76090286 148.28854622 87.76090286 148.28854622 86.01860046 148.29830933 C84.77704193 148.29942215 83.5354834 148.30053497 82.25630188 148.30168152 C80.98694794 148.30500992 79.71759399 148.30833832 78.40977478 148.31176758 C75.71453874 148.31684411 73.0194034 148.31960676 70.32417297 148.3190155 C66.88444756 148.31891438 63.44493089 148.33251063 60.00525475 148.34978771 C56.71394512 148.36365017 53.42263672 148.36299874 50.13130188 148.36418152 C48.90188873 148.37136703 47.67247559 148.37855255 46.4058075 148.38595581 C40.48486057 148.37021724 35.37211196 148.1949955 29.79536438 146.13371277 C29.79536438 145.14371277 29.79536438 144.15371277 29.79536438 143.13371277 C30.60360657 142.79340027 31.41184875 142.45308777 32.24458313 142.10246277 C39.23133137 138.93356369 43.76644913 136.3446836 46.79536438 129.13371277 C47.7247307 126.34561382 47.92969971 124.63180509 47.95358276 121.7487793 C47.96337158 120.85275497 47.9731604 119.95673065 47.98324585 119.03355408 C47.98900131 118.05316162 47.99475677 117.07276917 48.00068665 116.06266785 C48.01058624 115.02835129 48.02048584 113.99403473 48.03068542 112.92837524 C48.062319 109.50335493 48.08706529 106.07832074 48.11177063 102.65324402 C48.13233855 100.28098181 48.15333497 97.90872328 48.17474365 95.53646851 C48.22998106 89.28772457 48.27938303 83.03894747 48.32759094 76.79014587 C48.37779374 70.4157058 48.43348619 64.04131398 48.48872375 57.66691589 C48.59632577 45.15588967 48.69795259 32.64482227 48.79536438 20.13371277 C46.56140224 20.12565842 44.32743167 20.11992148 42.09346008 20.11515808 C40.8494191 20.11171387 39.60537811 20.10826965 38.32363892 20.10472107 C26.41095648 20.20260713 14.16528515 21.00505811 4.98286438 29.32121277 C1.43196021 33.13514687 -0.33356588 37.33632543 -2.20463562 42.13371277 C-3.11869812 44.35246277 -3.11869812 44.35246277 -4.20463562 46.13371277 C-7.26713562 46.94621277 -7.26713562 46.94621277 -10.20463562 47.13371277 C-12.28699196 45.05135643 -11.41732758 40.58783247 -11.44291687 37.71574402 C-11.45098862 36.86574326 -11.45906036 36.01574249 -11.46737671 35.13998413 C-11.48123746 33.33509878 -11.49195067 31.530187 -11.49980164 29.7252655 C-11.5169571 26.97483328 -11.560817 24.2256209 -11.60502625 21.47550964 C-11.61515795 19.72226328 -11.62367256 17.96900668 -11.63041687 16.21574402 C-11.64792496 15.39677139 -11.66543304 14.57779877 -11.68347168 13.73400879 C-11.6633967 8.40142366 -10.75906268 5.35973838 -7.20463562 1.13371277 C-4.65217879 -0.14251565 -2.85861788 0.00497736 0 0 Z " fill="#DDCD97" transform="translate(194.2046356201172,69.86628723144531)"/>
<path d="M0 0 C0 0.66 0 1.32 0 2 C0.99 2.495 0.99 2.495 2 3 C2 3.66 2 4.32 2 5 C1.29327148 4.79141357 0.58654297 4.58282715 -0.14160156 4.36791992 C-8.07702796 2.18509626 -15.54285989 1.47497167 -23.75 1.3125 C-24.9359375 1.27833984 -26.121875 1.24417969 -27.34375 1.20898438 C-30.22907185 1.12754384 -33.1141295 1.05806387 -36 1 C-35.98510604 14.77854508 -35.94342599 28.55672715 -35.86790943 42.3350811 C-35.83367471 48.73352587 -35.80853482 55.13173275 -35.80444336 61.53027344 C-35.80015303 67.70966786 -35.77162803 73.88852595 -35.72656822 80.06775284 C-35.71361693 82.4207153 -35.70927709 84.77374202 -35.71384621 87.12673569 C-35.71876875 90.43256711 -35.69258391 93.73684095 -35.65942383 97.04248047 C-35.67236229 98.48934486 -35.67236229 98.48934486 -35.68556213 99.96543884 C-35.57079913 106.82729127 -33.92936415 112.30662988 -30 118 C-27.05942402 120.48547778 -23.8026801 121.71460263 -20.1875 123 C-18 124 -18 124 -16.6875 126.125 C-16.460625 126.74375 -16.23375 127.3625 -16 128 C-17.71737098 129.71737098 -19.98273742 129.13639148 -22.32666016 129.14526367 C-24.03446152 129.15483345 -24.03446152 129.15483345 -25.77676392 129.16459656 C-27.01832245 129.16570938 -28.25988098 129.1668222 -29.5390625 129.16796875 C-30.80841644 129.17129715 -32.07777039 129.17462555 -33.3855896 129.17805481 C-36.08082564 129.18313134 -38.77596098 129.18589399 -41.47119141 129.18530273 C-44.91091682 129.18520161 -48.35043349 129.19879786 -51.79010963 129.21607494 C-55.08141926 129.2299374 -58.37272766 129.22928597 -61.6640625 129.23046875 C-62.89347565 129.23765427 -64.12288879 129.24483978 -65.38955688 129.25224304 C-71.31050381 129.23650447 -76.42325241 129.06128273 -82 127 C-82 126.01 -82 125.02 -82 124 C-81.19175781 123.6596875 -80.38351563 123.319375 -79.55078125 122.96875 C-72.56403301 119.79985092 -68.02891525 117.21097083 -65 110 C-64.07063368 107.21190105 -63.86566467 105.49809232 -63.84178162 102.61506653 C-63.8319928 101.71904221 -63.82220398 100.82301788 -63.81211853 99.89984131 C-63.80636307 98.91944885 -63.8006076 97.9390564 -63.79467773 96.92895508 C-63.78477814 95.89463852 -63.77487854 94.86032196 -63.76467896 93.79466248 C-63.73304538 90.36964216 -63.70829909 86.94460797 -63.68359375 83.51953125 C-63.66302583 81.14726904 -63.64202941 78.77501051 -63.62062073 76.40275574 C-63.56538332 70.1540118 -63.51598135 63.9052347 -63.46777344 57.65643311 C-63.41757064 51.28199303 -63.36187819 44.90760121 -63.30664062 38.53320312 C-63.19903861 26.0221769 -63.09741179 13.5111095 -63 1 C-65.22737304 0.9940599 -67.4547507 0.98983561 -69.68212891 0.98632812 C-70.92249908 0.98379028 -72.16286926 0.98125244 -73.44082642 0.9786377 C-77.76696129 1.00460333 -82.06037563 1.20326933 -86.375 1.5 C-87.12265625 1.54769531 -87.8703125 1.59539062 -88.640625 1.64453125 C-90.42734135 1.75906435 -92.21371699 1.87889607 -94 2 C-84.69023007 -3.37102111 -71.65691507 -1 -62 -1 C-62 15.17 -62 31.34 -62 48 C-57.545 47.505 -57.545 47.505 -53 47 C-52.67 45.35 -52.34 43.7 -52 42 C-51.34 42 -50.68 42 -50 42 C-49.566875 41.525625 -49.13375 41.05125 -48.6875 40.5625 C-47 39 -47 39 -44.4375 38.5625 C-41.90398334 38.27187922 -41.90398334 38.27187922 -40.88671875 36.32421875 C-39.84108007 33.58344775 -39.58376673 31.17273416 -39.375 28.25 C-39.30023438 27.26515625 -39.22546875 26.2803125 -39.1484375 25.265625 C-39.09945312 24.51796875 -39.05046875 23.7703125 -39 23 C-38.34 23 -37.68 23 -37 23 C-37 15.08 -37 7.16 -37 -1 C-32.69499505 -1.18939974 -28.39080609 -1.37186945 -24.08496094 -1.53710938 C-22.62223121 -1.59528245 -21.15965253 -1.65739915 -19.69726562 -1.72363281 C-17.58751963 -1.81848515 -15.47762598 -1.89884522 -13.3671875 -1.9765625 C-12.09987793 -2.02893066 -10.83256836 -2.08129883 -9.52685547 -2.13525391 C-5.96498261 -1.99865709 -3.30001599 -1.3013522 0 0 Z " fill="#BCA164" transform="translate(306,89)"/>
<path d="M0 0 C0.33 27.39 0.66 54.78 1 83 C2.70509 78.73727501 3.4721307 75.48688907 4 71 C4.99 71 5.98 71 7 71 C7.33 71.66 7.66 72.32 8 73 C8.99 72.67 9.98 72.34 11 72 C10.34 73.98 9.68 75.96 9 78 C9.66 78 10.32 78 11 78 C11.10183594 77.41734375 11.20367187 76.8346875 11.30859375 76.234375 C12.11517153 73.62780725 13.24157009 72.26464586 15.0625 70.25 C15.61035156 69.63640625 16.15820312 69.0228125 16.72265625 68.390625 C17.35494141 67.70226562 17.35494141 67.70226562 18 67 C20 69 20 69 20.08984375 71.27734375 C19.98842127 73.04833637 19.88426193 74.81917442 19.77734375 76.58984375 C19.74376576 79.064358 19.74376576 79.064358 21.4921875 80.4609375 C23 82 23 82 23.29296875 84.69921875 C23.25816406 85.68535156 23.22335937 86.67148438 23.1875 87.6875 C23.14689453 89.17830078 23.14689453 89.17830078 23.10546875 90.69921875 C23.07066406 91.45847656 23.03585937 92.21773438 23 93 C22.34 93 21.68 93 21 93 C20.505 94.485 20.505 94.485 20 96 C19.34 96 18.68 96 18 96 C17.67 98.97 17.34 101.94 17 105 C16.01 105 15.02 105 14 105 C14.495 108.465 14.495 108.465 15 112 C14.03320312 112.55107422 14.03320312 112.55107422 13.046875 113.11328125 C10.24445365 115.69642918 10.41106993 117.44262411 10.25 121.1875 C10.19328125 122.27417969 10.1365625 123.36085938 10.078125 124.48046875 C10.03945312 125.72763672 10.03945312 125.72763672 10 127 C11.98 126.505 11.98 126.505 14 126 C14 125.67 14 125.34 14 125 C16.875 124.875 16.875 124.875 20 125 C20.99 125.99 20.99 125.99 22 127 C24.52037964 127.37135915 24.52037964 127.37135915 27.4453125 127.4140625 C28.52167969 127.45273438 29.59804688 127.49140625 30.70703125 127.53125 C31.83496094 127.5621875 32.96289062 127.593125 34.125 127.625 C35.26066406 127.66367188 36.39632812 127.70234375 37.56640625 127.7421875 C40.37743956 127.83667601 43.18846233 127.92223541 46 128 C45.67 128.66 45.34 129.32 45 130 C37.55866228 130.04647641 30.1173562 130.08194662 22.67590237 130.10362434 C19.21999904 130.11403205 15.76419551 130.12813566 12.30834961 130.15087891 C8.32927675 130.1768997 4.35024337 130.18649772 0.37109375 130.1953125 C-0.86145645 130.20563507 -2.09400665 130.21595764 -3.36390686 130.22659302 C-9.29786881 130.22736532 -14.41222779 130.07166924 -20 128 C-20 127.01 -20 126.02 -20 125 C-19.19175781 124.6596875 -18.38351563 124.319375 -17.55078125 123.96875 C-10.56403301 120.79985092 -6.02891525 118.21097083 -3 111 C-2.07063368 108.21190105 -1.86566467 106.49809232 -1.84178162 103.61506653 C-1.8319928 102.71904221 -1.82220398 101.82301788 -1.81211853 100.89984131 C-1.80636307 99.91944885 -1.8006076 98.9390564 -1.79467773 97.92895508 C-1.78477814 96.89463852 -1.77487854 95.86032196 -1.76467896 94.79466248 C-1.73304538 91.36964216 -1.70829909 87.94460797 -1.68359375 84.51953125 C-1.66302583 82.14726904 -1.64202941 79.77501051 -1.62062073 77.40275574 C-1.56538332 71.1540118 -1.51598135 64.9052347 -1.46777344 58.65643311 C-1.41757064 52.28199303 -1.36187819 45.90760121 -1.30664062 39.53320312 C-1.19903861 27.0221769 -1.09741179 14.5111095 -1 2 C-3.22737304 1.9940599 -5.4547507 1.98983561 -7.68212891 1.98632812 C-8.92249908 1.98379028 -10.16286926 1.98125244 -11.44082642 1.9786377 C-15.76696129 2.00460333 -20.06037563 2.20326933 -24.375 2.5 C-25.12265625 2.54769531 -25.8703125 2.59539062 -26.640625 2.64453125 C-28.42734135 2.75906435 -30.21371699 2.87889607 -32 3 C-22.69023007 -2.37102111 -9.65691507 0 0 0 Z " fill="#6E5628" transform="translate(244,88)"/>
<path d="M0 0 C2.17272481 2.17272481 1.2853851 7.19007313 1.3515625 10.21484375 C1.37471527 11.14091934 1.39786804 12.06699493 1.42172241 13.02113342 C1.46943674 14.98400241 1.5146615 16.94693322 1.55761719 18.90991211 C1.62463932 21.9212943 1.70240622 24.9322662 1.78125 27.94335938 C1.82617066 29.84633894 1.87046246 31.74933347 1.9140625 33.65234375 C1.93796051 34.55758286 1.96185852 35.46282196 1.98648071 36.39549255 C2.0033493 37.23298538 2.0202179 38.07047821 2.03759766 38.93334961 C2.05456696 39.67201767 2.07153625 40.41068573 2.08901978 41.17173767 C2 43 2 43 1 45 C-1.5625 45.625 -1.5625 45.625 -4 46 C-6.05007297 42.76304267 -7.77185436 39.44439067 -9.4375 36 C-11.90075016 31.03673476 -14.65268002 27.31524094 -18.625 23.4375 C-21 21 -21 21 -22 18.75 C-22.86398433 16.76046814 -22.86398433 16.76046814 -25.19018555 16.39672852 C-28.15473383 15.97815254 -30.96345695 15.88699209 -33.95703125 15.90234375 C-35.06884766 15.90556641 -36.18066406 15.90878906 -37.32617188 15.91210938 C-38.47666016 15.92048828 -39.62714844 15.92886719 -40.8125 15.9375 C-41.98232422 15.94201172 -43.15214844 15.94652344 -44.35742188 15.95117188 C-47.23833358 15.9629307 -50.11914044 15.97936574 -53 16 C-52.52691406 15.21496094 -52.05382812 14.42992188 -51.56640625 13.62109375 C-49.6182945 10.36128581 -48.14015315 7.44673817 -47 3.8125 C-46 1 -46 1 -44 0 C-42.15017946 -0.14163401 -40.29581988 -0.2260565 -38.44140625 -0.28125 C-36.77948242 -0.33732422 -36.77948242 -0.33732422 -35.08398438 -0.39453125 C-33.92189453 -0.42933594 -32.75980469 -0.46414062 -31.5625 -0.5 C-29.27200895 -0.56882945 -26.98163101 -0.64156636 -24.69140625 -0.71875 C-23.67248291 -0.74904297 -22.65355957 -0.77933594 -21.60375977 -0.81054688 C-5.5804862 -1.9764222 -5.5804862 -1.9764222 0 0 Z " fill="#B99F65" transform="translate(328,72)"/>
<path d="M0 0 C0.86407471 0.02618408 1.72814941 0.05236816 2.6184082 0.0793457 C3.55620117 0.09545898 4.49399414 0.11157227 5.46020508 0.12817383 C6.43666992 0.17006836 7.41313477 0.21196289 8.41918945 0.25512695 C9.40725586 0.27768555 10.39532227 0.30024414 11.41333008 0.32348633 C13.85430504 0.38244708 16.29223813 0.46467647 18.73168945 0.56762695 C18.93255388 4.28361886 18.88363315 5.33971141 16.73168945 8.56762695 C17.72168945 9.22762695 18.71168945 9.88762695 19.73168945 10.56762695 C19.56668945 11.35137695 19.40168945 12.13512695 19.23168945 12.94262695 C18.66931875 15.44970734 18.66931875 15.44970734 18.73168945 17.56762695 C20.38168945 18.22762695 22.03168945 18.88762695 23.73168945 19.56762695 C20.73168945 21.56762695 20.73168945 21.56762695 17.54418945 23.13012695 C10.81008299 26.9965313 6.12461333 32.77505074 3.60668945 40.06762695 C2.7355957 42.5871582 2.7355957 42.5871582 1.73168945 44.56762695 C-1.45581055 45.75512695 -1.45581055 45.75512695 -4.26831055 45.56762695 C-6.35272639 43.48321111 -5.45675152 38.98999668 -5.47143555 36.11450195 C-5.47713562 35.26212952 -5.48283569 34.40975708 -5.4887085 33.53155518 C-5.49817541 31.72246549 -5.50469916 29.91335842 -5.50854492 28.10424805 C-5.51822151 25.34303337 -5.54921632 22.58257205 -5.58081055 19.8215332 C-5.58734329 18.06502721 -5.59259269 16.30851589 -5.59643555 14.55200195 C-5.60878235 13.72786804 -5.62112915 12.90373413 -5.6338501 12.05462646 C-5.59270647 1.399531 -5.59270647 1.399531 0 0 Z " fill="#725E35" transform="translate(188.268310546875,71.432373046875)"/>
<path d="M0 0 C0.66 0 1.32 0 2 0 C1.67 1.32 1.34 2.64 1 4 C1.66 4 2.32 4 3 4 C3.33 3.34 3.66 2.68 4 2 C4.66 2.33 5.32 2.66 6 3 C6 3.66 6 4.32 6 5 C6.66 5 7.32 5 8 5 C8.09898364 11.17467586 8.1715236 17.34888843 8.21972656 23.52416992 C8.23982397 25.62418667 8.26710666 27.72414758 8.30175781 29.82397461 C8.3503577 32.84502958 8.37298762 35.86534377 8.390625 38.88671875 C8.41127014 39.82335861 8.43191528 40.75999847 8.45318604 41.72502136 C8.45466496 46.03533019 8.37939951 48.37438093 6.10058594 52.13208008 C4 54 4 54 2 54 C2 57.3 2 60.6 2 64 C1.01 64 0.02 64 -1 64 C-0.67 65.98 -0.34 67.96 0 70 C-1.98 71.32 -3.96 72.64 -6 74 C-7.60685189 69.98287028 -6.43257376 66.93957783 -5 63 C-4.46375 62.484375 -3.9275 61.96875 -3.375 61.4375 C-1.65162179 59.94639892 -1.65162179 59.94639892 -1.8125 56.8125 C-1.874375 55.884375 -1.93625 54.95625 -2 54 C-1.01 54 -0.02 54 1 54 C1.03738281 53.38511719 1.07476562 52.77023438 1.11328125 52.13671875 C1.17902344 51.32847656 1.24476563 50.52023438 1.3125 49.6875 C1.37050781 48.88699219 1.42851562 48.08648437 1.48828125 47.26171875 C2.08838825 44.60933741 2.85708967 43.63496121 5 42 C5.66 42 6.32 42 7 42 C6.16791467 34.08638872 6.16791467 34.08638872 3 27 C2.8046875 24.73828125 2.8046875 24.73828125 2.875 22.3125 C2.89304687 21.50425781 2.91109375 20.69601563 2.9296875 19.86328125 C2.95289063 19.24839844 2.97609375 18.63351563 3 18 C1.84775972 18.92961422 0.70340824 19.8690125 -0.4375 20.8125 C-1.07558594 21.33457031 -1.71367187 21.85664063 -2.37109375 22.39453125 C-4.2548275 24.00834411 -4.2548275 24.00834411 -5 27 C-5.66 27 -6.32 27 -7 27 C-6.49396008 24.83125748 -6.00016187 23.00032373 -5 21 C-6.98 21.99 -6.98 21.99 -9 23 C-9 22.01 -9 21.02 -9 20 C-9.66 20.33 -10.32 20.66 -11 21 C-11 22.32 -11 23.64 -11 25 C-11.66 25 -12.32 25 -13 25 C-12.67 25.99 -12.34 26.98 -12 28 C-13.4375 31.1875 -13.4375 31.1875 -15 34 C-15.33 34 -15.66 34 -16 34 C-16.02895225 30.70835171 -16.0467823 27.41673601 -16.0625 24.125 C-16.07506836 22.71927734 -16.07506836 22.71927734 -16.08789062 21.28515625 C-16.09111328 20.38925781 -16.09433594 19.49335938 -16.09765625 18.5703125 C-16.10289307 17.74289551 -16.10812988 16.91547852 -16.11352539 16.06298828 C-16 14 -16 14 -15 12 C-13.67851173 11.62243192 -12.34164079 11.2981424 -11 11 C-7.24460727 9.90080731 -7.24460727 9.90080731 -5 7 C-4.01 6.34 -3.02 5.68 -2 5 C-0.79549696 2.44816596 -0.79549696 2.44816596 0 0 Z " fill="#9D804A" transform="translate(260,139)"/>
<path d="M0 0 C0.33 34.98 0.66 69.96 1 106 C1.66 106 2.32 106 3 106 C2.5206753 110.31392226 1.2542015 112.16569547 -2 115 C-1.34 115 -0.68 115 0 115 C0 115.66 0 116.32 0 117 C-0.66 117.5775 -1.32 118.155 -2 118.75 C-4.32244569 120.90578747 -4.32244569 120.90578747 -4.25 124.25 C-4.12625 125.61125 -4.12625 125.61125 -4 127 C-0.37 127.33 3.26 127.66 7 128 C7 128.33 7 128.66 7 129 C3.81360234 129.22821192 0.62602344 129.42892029 -2.5625 129.625 C-3.45775391 129.68945312 -4.35300781 129.75390625 -5.27539062 129.8203125 C-10.69314434 130.13783653 -14.88209592 129.83935647 -20 128 C-20 127.01 -20 126.02 -20 125 C-19.19175781 124.6596875 -18.38351563 124.319375 -17.55078125 123.96875 C-10.56403301 120.79985092 -6.02891525 118.21097083 -3 111 C-2.07063368 108.21190105 -1.86566467 106.49809232 -1.84178162 103.61506653 C-1.8319928 102.71904221 -1.82220398 101.82301788 -1.81211853 100.89984131 C-1.80636307 99.91944885 -1.8006076 98.9390564 -1.79467773 97.92895508 C-1.78477814 96.89463852 -1.77487854 95.86032196 -1.76467896 94.79466248 C-1.73304538 91.36964216 -1.70829909 87.94460797 -1.68359375 84.51953125 C-1.66302583 82.14726904 -1.64202941 79.77501051 -1.62062073 77.40275574 C-1.56538332 71.1540118 -1.51598135 64.9052347 -1.46777344 58.65643311 C-1.41757064 52.28199303 -1.36187819 45.90760121 -1.30664062 39.53320312 C-1.19903861 27.0221769 -1.09741179 14.5111095 -1 2 C-3.22737304 1.9940599 -5.4547507 1.98983561 -7.68212891 1.98632812 C-8.92249908 1.98379028 -10.16286926 1.98125244 -11.44082642 1.9786377 C-15.76696129 2.00460333 -20.06037563 2.20326933 -24.375 2.5 C-25.12265625 2.54769531 -25.8703125 2.59539062 -26.640625 2.64453125 C-28.42734135 2.75906435 -30.21371699 2.87889607 -32 3 C-22.69023007 -2.37102111 -9.65691507 0 0 0 Z " fill="#302615" transform="translate(244,88)"/>
<path d="M0 0 C4.29 0 8.58 0 13 0 C13 5 13 5 11 8 C11.99 8.66 12.98 9.32 14 10 C13.835 10.78375 13.67 11.5675 13.5 12.375 C12.9376293 14.88208039 12.9376293 14.88208039 13 17 C14.65 17.66 16.3 18.32 18 19 C15.25906335 20.8272911 12.86174676 21.93698178 9.8125 23.125 C8.91144531 23.47820312 8.01039063 23.83140625 7.08203125 24.1953125 C6.39496094 24.46085937 5.70789063 24.72640625 5 25 C3.68 23.68 2.36 22.36 1 21 C1.66 20.67 2.32 20.34 3 20 C2.35546875 19.76539062 1.7109375 19.53078125 1.046875 19.2890625 C-1 18 -1 18 -1.609375 15.8359375 C-1.65578125 15.02382812 -1.7021875 14.21171875 -1.75 13.375 C-1.80671875 12.55773437 -1.8634375 11.74046875 -1.921875 10.8984375 C-1.94765625 10.27195312 -1.9734375 9.64546875 -2 9 C-1.01 8.67 -0.02 8.34 1 8 C0.67 7.01 0.34 6.02 0 5 C0.66 5 1.32 5 2 5 C2 4.34 2 3.68 2 3 C1.34 2.67 0.68 2.34 0 2 C0 1.34 0 0.68 0 0 Z " fill="#B0985E" transform="translate(194,72)"/>
<path d="M0 0 C1.9453125 -0.29296875 1.9453125 -0.29296875 4.125 -0.1875 C5.40375 -0.125625 6.6825 -0.06375 8 0 C10.125 4.625 10.125 4.625 9 8 C8.01 8.495 8.01 8.495 7 9 C7 11.97 7 14.94 7 18 C8.32 18.33 9.64 18.66 11 19 C11.33 19.66 11.66 20.32 12 21 C11.34 21.33 10.68 21.66 10 22 C10.61875 22.309375 11.2375 22.61875 11.875 22.9375 C13.25 23.625 14.625 24.3125 16 25 C13.3144406 27.6855594 10.62378672 28.06049974 7 29 C5.875 24.25 5.875 24.25 7 22 C3.93882432 19.37613513 3.26826873 19 -1 19 C-2.97299514 17.02700486 -2.18499989 13.31511482 -2.1875 10.625 C-2.19974609 9.93921875 -2.21199219 9.2534375 -2.22460938 8.546875 C-2.23552331 4.80703203 -2.1266842 3.1900263 0 0 Z " fill="#89703D" transform="translate(186,72)"/>
<path d="M0 0 C0.66 0 1.32 0 2 0 C3.25299847 6.69379906 3.26049304 13.27039154 3.3125 20.0625 C3.34150391 21.32900391 3.37050781 22.59550781 3.40039062 23.90039062 C3.40876953 25.12048828 3.41714844 26.34058594 3.42578125 27.59765625 C3.44036377 28.70633057 3.45494629 29.81500488 3.4699707 30.95727539 C2.89480697 34.68104976 1.63910668 36.35905101 -1 39 C-1.66 39 -2.32 39 -3 39 C-3 42.3 -3 45.6 -3 49 C-3.99 49 -4.98 49 -6 49 C-5.67 50.98 -5.34 52.96 -5 55 C-6.98 56.32 -8.96 57.64 -11 59 C-12.60685189 54.98287028 -11.43257376 51.93957783 -10 48 C-9.46375 47.484375 -8.9275 46.96875 -8.375 46.4375 C-6.65162179 44.94639892 -6.65162179 44.94639892 -6.8125 41.8125 C-6.874375 40.884375 -6.93625 39.95625 -7 39 C-6.01 39 -5.02 39 -4 39 C-3.96261719 38.38511719 -3.92523438 37.77023438 -3.88671875 37.13671875 C-3.82097656 36.32847656 -3.75523437 35.52023438 -3.6875 34.6875 C-3.62949219 33.88699219 -3.57148438 33.08648437 -3.51171875 32.26171875 C-2.91161175 29.60933741 -2.14291033 28.63496121 0 27 C0.66 27 1.32 27 2 27 C1.16791467 19.08638872 1.16791467 19.08638872 -2 12 C-2.01171875 9.84375 -2.01171875 9.84375 -1.6875 7.5 C-1.58824219 6.7265625 -1.48898437 5.953125 -1.38671875 5.15625 C-1 3 -1 3 0 0 Z " fill="#856C3A" transform="translate(265,154)"/>
<path d="M0 0 C6.15234375 -0.09765625 6.15234375 -0.09765625 8 0 C9.88723524 1.88723524 9.12894259 4.62437263 9.13894653 7.13497925 C9.1369223 7.99535797 9.13489807 8.85573669 9.1328125 9.7421875 C9.13376923 10.62149933 9.13472595 11.50081116 9.13571167 12.4067688 C9.13639366 14.27134268 9.13453809 16.13591893 9.13037109 18.00048828 C9.12503578 20.85584868 9.13030887 23.71105086 9.13671875 26.56640625 C9.13605772 28.37500035 9.13477605 30.18359435 9.1328125 31.9921875 C9.13483673 32.84851776 9.13686096 33.70484802 9.13894653 34.58712769 C9.12556957 37.97098696 9.07745133 40.767646 8 44 C6 44 6 44 4.38671875 42.82421875 C2.52932954 40.38083632 2.69437734 38.84431482 2.8125 35.8125 C2.85310547 34.46091797 2.85310547 34.46091797 2.89453125 33.08203125 C2.92933594 32.39496094 2.96414063 31.70789063 3 31 C2.34 31 1.68 31 1 31 C0.67 30.34 0.34 29.68 0 29 C-0.99 29.33 -1.98 29.66 -3 30 C-2.814375 29.38125 -2.62875 28.7625 -2.4375 28.125 C-1.76313824 25.95839822 -1.76313824 25.95839822 -3 24 C-0.03 24 2.94 24 6 24 C5.91621094 22.92621094 5.83242188 21.85242188 5.74609375 20.74609375 C5.6428397 19.30992378 5.53999706 17.87372419 5.4375 16.4375 C5.38142578 15.73302734 5.32535156 15.02855469 5.26757812 14.30273438 C4.94842246 9.68561569 5.19121965 5.5591248 6 1 C4.35 1.33 2.7 1.66 1 2 C0.67 1.34 0.34 0.68 0 0 Z " fill="#D9C998" transform="translate(320,72)"/>
<path d="M0 0 C0.99 0 1.98 0 3 0 C3 0.99 3 1.98 3 3 C3.7425 3.2475 4.485 3.495 5.25 3.75 C8 5 8 5 9.75 6.875 C12.5718889 9.54011729 15.47830921 10.60138469 19.07421875 11.97265625 C21 13 21 13 22 16 C18.08372337 16.14522934 14.16813847 16.23404757 10.25 16.3125 C9.13882812 16.35439453 8.02765625 16.39628906 6.8828125 16.43945312 C-1.38101227 16.56390832 -1.38101227 16.56390832 -4.765625 13.48046875 C-5.37664062 12.25263672 -5.37664062 12.25263672 -6 11 C-5.01 11 -4.02 11 -3 11 C-0.99464511 7.25667087 0 4.26323685 0 0 Z " fill="#AB9F7D" transform="translate(267,200)"/>
<path d="M0 0 C0 0.66 0 1.32 0 2 C0.66 2.33 1.32 2.66 2 3 C2 3.66 2 4.32 2 5 C-3.94 3.515 -3.94 3.515 -10 2 C-22.87 1.505 -22.87 1.505 -36 1 C-36 34.66 -36 68.32 -36 103 C-36.33 103 -36.66 103 -37 103 C-37 68.68 -37 34.36 -37 -1 C-6 -2 -6 -2 0 0 Z " fill="#3B3723" transform="translate(306,89)"/>
<path d="M0 0 C2.80178062 3.2334275 3.74124175 6.10448769 4.6875 10.25 C4.93886719 11.32765625 5.19023437 12.4053125 5.44921875 13.515625 C5.63097656 14.33546875 5.81273437 15.1553125 6 16 C3 15 3 15 1 13 C1 13.66 1 14.32 1 15 C-0.76217955 20.01543409 -2.35750574 23.95159941 -6.9375 26.875 C-9.98949975 27.99614276 -11.07154334 28.23896243 -14 27 C-10.25 21.125 -10.25 21.125 -8 20 C-8 18.35 -8 16.7 -8 15 C-7.01 15 -6.02 15 -5 15 C-5 11.7 -5 8.4 -5 5 C-4.34 5 -3.68 5 -3 5 C-2.67 4.01 -2.34 3.02 -2 2 C-1.34 2 -0.68 2 0 2 C0 1.34 0 0.68 0 0 Z " fill="#A98E58" transform="translate(267,188)"/>
<path d="M0 0 C0.33 0 0.66 0 1 0 C1 3.96 1 7.92 1 12 C0.34 12 -0.32 12 -1 12 C-1 11.34 -1 10.68 -1 10 C-2.65 10.33 -4.3 10.66 -6 11 C-5.67 9.68 -5.34 8.36 -5 7 C-5.99 7.495 -5.99 7.495 -7 8 C-7.65772428 11.02934491 -7.65772428 11.02934491 -8 14 C-9.32 14 -10.64 14 -12 14 C-12.33 14.99 -12.66 15.98 -13 17 C-13.804375 17.12375 -14.60875 17.2475 -15.4375 17.375 C-16.283125 17.58125 -17.12875 17.7875 -18 18 C-18.33 18.66 -18.66 19.32 -19 20 C-19.99 19.67 -20.98 19.34 -22 19 C-22 17.68 -22 16.36 -22 15 C-20.68 15 -19.36 15 -18 15 C-18.33 13.35 -18.66 11.7 -19 10 C-15.7 10 -12.4 10 -9 10 C-9.515625 9.21625 -10.03125 8.4325 -10.5625 7.625 C-11.036875 6.75875 -11.51125 5.8925 -12 5 C-11.67 4.34 -11.34 3.68 -11 3 C-9.1128125 3.0928125 -9.1128125 3.0928125 -7.1875 3.1875 C-3.84872002 3.24805755 -3.84872002 3.24805755 -1.0625 1.5 C-0.5365625 0.7575 -0.5365625 0.7575 0 0 Z " fill="#B79558" transform="translate(267,132)"/>
<path d="M0 0 C18.48 0 36.96 0 56 0 C56 0.33 56 0.66 56 1 C50.1895797 3.0268908 45.58718436 4.22578154 39.4375 3.5625 C32.46088338 2.92826213 25.54243368 2.94081803 18.54077148 3.03735352 C17.70747314 3.04565186 16.8741748 3.0539502 16.015625 3.0625 C15.26571289 3.07410156 14.51580078 3.08570312 13.74316406 3.09765625 C12 3 12 3 11 2 C9.15108054 1.76636119 7.29511969 1.58696365 5.4375 1.4375 C4.42558594 1.35371094 3.41367188 1.26992187 2.37109375 1.18359375 C1.19740234 1.09271484 1.19740234 1.09271484 0 1 C0 0.67 0 0.34 0 0 Z " fill="#F2EACD" transform="translate(213,71)"/>
<path d="M0 0 C2.31 0.33 4.62 0.66 7 1 C7 1.99 7 2.98 7 4 C6.34 4 5.68 4 5 4 C5 4.66 5 5.32 5 6 C5.66 6 6.32 6 7 6 C6.39009109 9.55780196 5.4216319 12.6828589 4 16 C4.66 16 5.32 16 6 16 C5.67 16.99 5.34 17.98 5 19 C0.25 18.25 0.25 18.25 -2 16 C-1.34 15.34 -0.68 14.68 0 14 C0.43386092 10.12202338 0.43386092 10.12202338 -1.5 8.25 C-1.995 7.8375 -2.49 7.425 -3 7 C-2.690625 6.401875 -2.38125 5.80375 -2.0625 5.1875 C-0.89790296 2.91043228 -0.89790296 2.91043228 0 0 Z " fill="#D1BB86" transform="translate(207,72)"/>
<path d="M0 0 C0 1.65 0 3.3 0 5 C5.445 5.495 5.445 5.495 11 6 C11 6.33 11 6.66 11 7 C7.81360234 7.22821192 4.62602344 7.42892029 1.4375 7.625 C0.54224609 7.68945312 -0.35300781 7.75390625 -1.27539062 7.8203125 C-6.69314434 8.13783653 -10.88209592 7.83935647 -16 6 C-16 5.01 -16 4.02 -16 3 C-10.4477112 0.1647887 -6.19887485 -0.37952295 0 0 Z " fill="#372A17" transform="translate(240,210)"/>
<path d="M0 0 C1.98 0 3.96 0 6 0 C6 0.99 6 1.98 6 3 C6.99 3 7.98 3 9 3 C9 3.99 9 4.98 9 6 C9.66 6 10.32 6 11 6 C11.74926071 9.66305234 12.2380014 12.42355152 11 16 C11.99 16.33 12.98 16.66 14 17 C14.33 17.33 14.66 17.66 15 18 C15 14.37 15 10.74 15 7 C18 10 18 10 18.328125 11.97265625 C18.11111111 17.77777778 18.11111111 17.77777778 17 20 C14.4375 20.625 14.4375 20.625 12 21 C9.96208661 17.78224201 8.23262308 14.48006668 6.5625 11.0625 C4.62689571 7.13850221 2.53219116 3.56382459 0 0 Z " fill="#A99871" transform="translate(312,97)"/>
<path d="M0 0 C0.66 0 1.32 0 2 0 C2 27.06 2 54.12 2 82 C1.67 82 1.34 82 1 82 C1 60.22 1 38.44 1 16 C-0.32 16.33 -1.64 16.66 -3 17 C-2.690625 16.236875 -2.38125 15.47375 -2.0625 14.6875 C-0.66197419 9.82685159 -0.34020266 5.03141827 0 0 Z " fill="#B3A589" transform="translate(267,112)"/>
<path d="M0 0 C0.99 0 1.98 0 3 0 C3 0.99 3 1.98 3 3 C3.78375 3.2475 4.5675 3.495 5.375 3.75 C8.32317108 5.15389099 8.9024777 6.00675737 10 9 C8.824375 9.185625 8.824375 9.185625 7.625 9.375 C3.9016461 10.26151283 3.11312071 11.83031893 1 15 C-1.91517292 13.92598892 -3.77810176 13.22189824 -6 11 C-5.01 11 -4.02 11 -3 11 C-0.99464511 7.25667087 0 4.26323685 0 0 Z " fill="#D6C58F" transform="translate(267,200)"/>
<path d="M0 0 C1.32 0.33 2.64 0.66 4 1 C4 2.32 4 3.64 4 5 C4.66 5 5.32 5 6 5 C6.33 4.34 6.66 3.68 7 3 C7 3.99 7 4.98 7 6 C7.66 6.33 8.32 6.66 9 7 C7.625 9.5 7.625 9.5 6 12 C5.34 12 4.68 12 4 12 C4.50603992 9.83125748 4.99983813 8.00032373 6 6 C4.02 6.99 4.02 6.99 2 8 C2 7.01 2 6.02 2 5 C1.01 5.495 1.01 5.495 0 6 C0 7.32 0 8.64 0 10 C-0.66 10 -1.32 10 -2 10 C-1.67 10.99 -1.34 11.98 -1 13 C-2.4375 16.1875 -2.4375 16.1875 -4 19 C-4.33 19 -4.66 19 -5 19 C-5.05397335 16.5622037 -5.09365616 14.12560315 -5.125 11.6875 C-5.14175781 10.99720703 -5.15851563 10.30691406 -5.17578125 9.59570312 C-5.21217794 5.82864604 -5.14378864 4.21568296 -3 1 C-3 1.66 -3 2.32 -3 3 C-1.35 3.33 0.3 3.66 2 4 C1.34 2.68 0.68 1.36 0 0 Z " fill="#8A703C" transform="translate(249,154)"/>
<path d="M0 0 C0.33 0 0.66 0 1 0 C1 5.28 1 10.56 1 16 C1.99 16.33 2.98 16.66 4 17 C3.34 17 2.68 17 2 17 C2.33 18.65 2.66 20.3 3 22 C3.33 22 3.66 22 4 22 C4 28.45333867 3.8867966 33.74998628 2 40 C2.66 40.33 3.32 40.66 4 41 C2.68 41 1.36 41 0 41 C0 27.47 0 13.94 0 0 Z " fill="#D4C79C" transform="translate(244,96)"/>
<path d="M0 0 C2.86724686 0.57344937 3.8614515 0.8614515 6 3 C5.34 3.66 4.68 4.32 4 5 C4.721875 5.20625 5.44375 5.4125 6.1875 5.625 C9.9255306 7.45248163 11.49246917 9.70438806 14 13 C10.535 14.485 10.535 14.485 7 16 C5.68 14.68 4.36 13.36 3 12 C3.66 11.67 4.32 11.34 5 11 C4.35546875 10.76539062 3.7109375 10.53078125 3.046875 10.2890625 C1 9 1 9 0.390625 6.8359375 C0.34421875 6.02382812 0.2978125 5.21171875 0.25 4.375 C0.19328125 3.55773437 0.1365625 2.74046875 0.078125 1.8984375 C0.05234375 1.27195312 0.0265625 0.64546875 0 0 Z " fill="#A48D5B" transform="translate(192,81)"/>
<path d="M0 0 C0 0.66 0 1.32 0 2 C0.66 2.33 1.32 2.66 2 3 C2 3.66 2 4.32 2 5 C1.29907227 4.79721436 0.59814453 4.59442871 -0.12402344 4.38549805 C-8.16913159 2.19921293 -15.94361292 1.30402888 -24.25 0.8125 C-25.48363281 0.73064453 -26.71726562 0.64878906 -27.98828125 0.56445312 C-30.99170164 0.36655333 -33.99537927 0.17857168 -37 0 C-37 -0.33 -37 -0.66 -37 -1 C-32.69546703 -1.19333336 -28.3906427 -1.37187572 -24.08496094 -1.53710938 C-22.62223121 -1.59528245 -21.15965253 -1.65739915 -19.69726562 -1.72363281 C-17.58751963 -1.81848515 -15.47762598 -1.89884522 -13.3671875 -1.9765625 C-12.09987793 -2.02893066 -10.83256836 -2.08129883 -9.52685547 -2.13525391 C-5.96498261 -1.99865709 -3.30001599 -1.3013522 0 0 Z " fill="#716244" transform="translate(306,89)"/>
<path d="M0 0 C0.33 0 0.66 0 1 0 C2.03351814 10.17617858 1.85803148 19.83562705 1 30 C1.66 30 2.32 30 3 30 C3 29.34 3 28.68 3 28 C3.66 28.33 4.32 28.66 5 29 C5 29.66 5 30.32 5 31 C5.66 31.33 6.32 31.66 7 32 C6.67 32.66 6.34 33.32 6 34 C5.89459074 36.21081851 5.89459074 36.21081851 7 39 C5.0085944 39.38133299 3.00720923 39.71325582 1 40 C0 39 0 39 -0.11352539 35.30639648 C-0.11336624 33.66128708 -0.10766988 32.01617269 -0.09765625 30.37109375 C-0.0962413 29.50686295 -0.09482635 28.64263214 -0.09336853 27.75221252 C-0.08775239 24.98060708 -0.07519719 22.2090812 -0.0625 19.4375 C-0.05748708 17.5631522 -0.05292381 15.68880315 -0.04882812 13.81445312 C-0.03777772 9.20960456 -0.0205023 4.60481579 0 0 Z " fill="#4F4125" transform="translate(183,77)"/>
<path d="M0 0 C1.23556641 0.01740234 1.23556641 0.01740234 2.49609375 0.03515625 C3.32238281 0.04417969 4.14867187 0.05320312 5 0.0625 C5.63808594 0.07410156 6.27617187 0.08570312 6.93359375 0.09765625 C7.13445818 3.81364816 7.08553745 4.8697407 4.93359375 8.09765625 C5.92359375 8.75765625 6.91359375 9.41765625 7.93359375 10.09765625 C7.60359375 11.74765625 7.27359375 13.39765625 6.93359375 15.09765625 C3.77243599 13.72782122 2.94088455 13.10859245 0.93359375 10.09765625 C1.26359375 9.10765625 1.59359375 8.11765625 1.93359375 7.09765625 C0.94359375 6.76765625 -0.04640625 6.43765625 -1.06640625 6.09765625 C-0.73640625 4.77765625 -0.40640625 3.45765625 -0.06640625 2.09765625 C-1.05640625 1.76765625 -2.04640625 1.43765625 -3.06640625 1.09765625 C-2.06640625 0.09765625 -2.06640625 0.09765625 0 0 Z " fill="#C7AE78" transform="translate(200.06640625,71.90234375)"/>
<path d="M0 0 C0.33 0 0.66 0 1 0 C1 5.28 1 10.56 1 16 C0.67 16 0.34 16 0 16 C0 14.02 0 12.04 0 10 C-0.66 10 -1.32 10 -2 10 C-2 10.99 -2 11.98 -2 13 C-2.61875 13.12375 -3.2375 13.2475 -3.875 13.375 C-6.19120832 13.87197356 -6.19120832 13.87197356 -8 16 C-8.99 16 -9.98 16 -11 16 C-11.8125 14.3125 -11.8125 14.3125 -12 12 C-9.8125 9.1875 -9.8125 9.1875 -7 7 C-4.875 7.25 -4.875 7.25 -3 8 C-2.01 7.67 -1.02 7.34 0 7 C0 4.69 0 2.38 0 0 Z " fill="#917A47" transform="translate(267,144)"/>
<path d="M0 0 C2.875 -0.125 2.875 -0.125 6 0 C6.66 0.66 7.32 1.32 8 2 C10.52037964 2.37135915 10.52037964 2.37135915 13.4453125 2.4140625 C15.05986328 2.47207031 15.05986328 2.47207031 16.70703125 2.53125 C18.39892578 2.57765625 18.39892578 2.57765625 20.125 2.625 C21.82849609 2.68300781 21.82849609 2.68300781 23.56640625 2.7421875 C26.37743956 2.83667601 29.18846233 2.92223541 32 3 C31.67 3.66 31.34 4.32 31 5 C26.97922848 5.05843491 22.95856741 5.0937424 18.9375 5.125 C17.2369043 5.15013672 17.2369043 5.15013672 15.50195312 5.17578125 C9.59960616 5.21019727 4.55932973 5.04944811 -1 3 C-0.67 2.01 -0.34 1.02 0 0 Z " fill="#595240" transform="translate(258,213)"/>
<path d="M0 0 C1.32 0 2.64 0 4 0 C3.98839844 0.67546875 3.97679687 1.3509375 3.96484375 2.046875 C3.95582031 2.93890625 3.94679687 3.8309375 3.9375 4.75 C3.92589844 5.63171875 3.91429687 6.5134375 3.90234375 7.421875 C3.90536423 9.96610634 3.90536423 9.96610634 4.58203125 12.21875 C4.78892578 13.10046875 4.78892578 13.10046875 5 14 C3.75 15.75 3.75 15.75 2 17 C1.01 17 0.02 17 -1 17 C-1.02691685 14.54159395 -1.04679802 12.08348118 -1.0625 9.625 C-1.07087891 8.92632812 -1.07925781 8.22765625 -1.08789062 7.5078125 C-1.11328125 2.2265625 -1.11328125 2.2265625 0 0 Z " fill="#7B6435" transform="translate(185,73)"/>
<path d="M0 0 C0.33 0.99 0.66 1.98 1 3 C0.38125 3.721875 -0.2375 4.44375 -0.875 5.1875 C-3.68905379 8.91198296 -3.68784558 11.39572231 -4 16 C-6.31 16 -8.62 16 -11 16 C-10.319375 14.88625 -10.319375 14.88625 -9.625 13.75 C-7.66859688 10.43916395 -6.15425088 7.49167469 -5 3.8125 C-3.84913842 0.5757018 -3.40272598 0 0 0 Z " fill="#CAB27A" transform="translate(286,72)"/>
<path d="M0 0 C1.258125 0.33 2.51625 0.66 3.8125 1 C6.38987302 1.67603227 8.30212925 2 11 2 C11 2.66 11 3.32 11 4 C9.68 4 8.36 4 7 4 C6.67 4.99 6.34 5.98 6 7 C5.195625 7.12375 4.39125 7.2475 3.5625 7.375 C2.2940625 7.684375 2.2940625 7.684375 1 8 C0.67 8.66 0.34 9.32 0 10 C-0.99 9.67 -1.98 9.34 -3 9 C-3 7.68 -3 6.36 -3 5 C-1.68 5 -0.36 5 1 5 C0.67 3.35 0.34 1.7 0 0 Z " fill="#AD8E53" transform="translate(248,142)"/>
<path d="M0 0 C1.98 0 3.96 0 6 0 C6 1.32 6 2.64 6 4 C5.34 4 4.68 4 4 4 C4.33 5.98 4.66 7.96 5 10 C3.68 10 2.36 10 1 10 C1 11.98 1 13.96 1 16 C0.67 16 0.34 16 0 16 C0 10.72 0 5.44 0 0 Z " fill="#B39D69" transform="translate(244,137)"/>
<path d="M0 0 C2.15377564 2.62198774 3.40072174 4.64404172 4 8 C2.02 8.33 0.04 8.66 -2 9 C-2.33 10.65 -2.66 12.3 -3 14 C-3.66 13.67 -4.32 13.34 -5 13 C-5 10.36 -5 7.72 -5 5 C-4.34 5 -3.68 5 -3 5 C-2.67 4.01 -2.34 3.02 -2 2 C-1.34 2 -0.68 2 0 2 C0 1.34 0 0.68 0 0 Z " fill="#927B49" transform="translate(267,188)"/>
<path d="M0 0 C-0.66 0.66 -1.32 1.32 -2 2 C-1.071875 2.4640625 -1.071875 2.4640625 -0.125 2.9375 C1.25 3.625 2.625 4.3125 4 5 C1.3144406 7.6855594 -1.37621328 8.06049974 -5 9 C-6.125 4.25 -6.125 4.25 -5 2 C-5.99 1.01 -6.98 0.02 -8 -1 C-4.59745511 -2.2151946 -3.06748874 -1.86240388 0 0 Z " fill="#937D4B" transform="translate(198,92)"/>
<path d="M0 0 C0.33 0.66 0.66 1.32 1 2 C0.01 2 -0.98 2 -2 2 C-1.24849977 5.27773504 -1.24849977 5.27773504 2 7 C-2.62 7 -7.24 7 -12 7 C-11.01 6.67 -10.02 6.34 -9 6 C-8.87625 5.195625 -8.7525 4.39125 -8.625 3.5625 C-8.41875 2.716875 -8.2125 1.87125 -8 1 C-5.29120665 -0.35439668 -2.99066732 -0.06501451 0 0 Z " fill="#DDCB9C" transform="translate(277,209)"/>
<path d="M0 0 C1.98 1.65 3.96 3.3 6 5 C5.1875 7.9375 5.1875 7.9375 4 11 C3.01 11.33 2.02 11.66 1 12 C0.34 12.66 -0.32 13.32 -1 14 C-1.144375 12.88625 -1.28875 11.7725 -1.4375 10.625 C-1.78372035 7.17857953 -1.78372035 7.17857953 -3 5 C-2.34 4.67 -1.68 4.34 -1 4 C-0.34786708 1.97536745 -0.34786708 1.97536745 0 0 Z " fill="#856C39" transform="translate(188,89)"/>
<path d="M0 0 C0.66 0 1.32 0 2 0 C1.67 1.32 1.34 2.64 1 4 C1.66 4 2.32 4 3 4 C3.33 3.34 3.66 2.68 4 2 C5.5625 3.25 5.5625 3.25 7 5 C6.6875 7.1875 6.6875 7.1875 6 9 C6 8.34 6 7.68 6 7 C3.69 7.33 1.38 7.66 -1 8 C-1 8.66 -1 9.32 -1 10 C-1.99 9.67 -2.98 9.34 -4 9 C-3.71125 8.443125 -3.4225 7.88625 -3.125 7.3125 C-1.9586747 4.91505355 -0.9660119 2.48403061 0 0 Z " fill="#A6864C" transform="translate(260,139)"/>
<path d="M0 0 C2.64 0 5.28 0 8 0 C8.5625 1.9375 8.5625 1.9375 9 4 C8.67 4.33 8.34 4.66 8 5 C7.92820036 6.51928038 7.91607993 8.04167482 7.9375 9.5625 C7.94652344 10.38878906 7.95554687 11.21507813 7.96484375 12.06640625 C7.97644531 12.70449219 7.98804688 13.34257813 8 14 C7.67 14 7.34 14 7 14 C6.67 11.69 6.34 9.38 6 7 C5.34 7 4.68 7 4 7 C3.67 6.34 3.34 5.68 3 5 C2.01 5.33 1.02 5.66 0 6 C0.185625 5.38125 0.37125 4.7625 0.5625 4.125 C1.23686176 1.95839822 1.23686176 1.95839822 0 0 Z " fill="#D4BE7E" transform="translate(317,96)"/>
<path d="M0 0 C2.31 0.33 4.62 0.66 7 1 C7 1.99 7 2.98 7 4 C6.34 4 5.68 4 5 4 C5 4.66 5 5.32 5 6 C5.66 6 6.32 6 7 6 C6.45276317 9.37462715 5.9451 11.08235 4 14 C2.24252386 9.49646738 1.80705592 5.82360189 2 1 C1.34 0.67 0.68 0.34 0 0 Z " fill="#DAC58F" transform="translate(207,72)"/>
<path d="M0 0 C0.99 0 1.98 0 3 0 C2.34 2.97 1.68 5.94 1 9 C1.99 9.33 2.98 9.66 4 10 C-1.41538462 13.07692308 -1.41538462 13.07692308 -4.375 12.6875 C-4.91125 12.460625 -5.4475 12.23375 -6 12 C-2.25 6.125 -2.25 6.125 0 5 C0 3.35 0 1.7 0 0 Z " fill="#9C844F" transform="translate(259,203)"/>
<path d="M0 0 C0.66 0 1.32 0 2 0 C2 5.28 2 10.56 2 16 C0.35 16.33 -1.3 16.66 -3 17 C-2.690625 16.236875 -2.38125 15.47375 -2.0625 14.6875 C-0.66197419 9.82685159 -0.34020266 5.03141827 0 0 Z " fill="#C7BB9C" transform="translate(267,112)"/>
<path d="M0 0 C3 3 3 3 3.328125 4.97265625 C3.11111111 10.77777778 3.11111111 10.77777778 2 13 C-0.4375 13.75 -0.4375 13.75 -3 14 C-3.66 13.34 -4.32 12.68 -5 12 C-5 11.01 -5 10.02 -5 9 C-1.125 9.875 -1.125 9.875 0 11 C0 7.37 0 3.74 0 0 Z " fill="#AFA67E" transform="translate(327,104)"/>
<path d="M0 0 C3.32454983 0.57319825 4.73981645 1.54327875 7 4 C7.99 4.66 8.98 5.32 10 6 C6.52674819 7.1577506 3.63932552 7.06866652 0 7 C-0.93423645 3.98968256 -1.04449911 3.13349732 0 0 Z " fill="#AF996C" transform="translate(202,86)"/>
<path d="M0 0 C1.37432457 3.81756824 0.67975039 7.07255329 0 11 C-1.32 11 -2.64 11 -4 11 C-4.36630156 7.06225823 -4.30233203 5.43460229 -2 2.125 C-1.34 1.42375 -0.68 0.7225 0 0 Z " fill="#BEA568" transform="translate(286,75)"/>
<path d="M0 0 C0.33 0 0.66 0 1 0 C2.1936095 7.16165702 2.43791484 13.81042579 1 21 C-1 19 -1 19 -1.13525391 17.02880859 C-1.08288574 16.24328613 -1.03051758 15.45776367 -0.9765625 14.6484375 C-0.925 13.79765625 -0.8734375 12.946875 -0.8203125 12.0703125 C-0.75585938 11.18085937 -0.69140625 10.29140625 -0.625 9.375 C-0.56828125 8.4778125 -0.5115625 7.580625 -0.453125 6.65625 C-0.31145247 4.43671376 -0.1600296 2.21827598 0 0 Z " fill="#DAC795" transform="translate(266,97)"/>
<path d="M0 0 C1.32 0.33 2.64 0.66 4 1 C3.38722388 3.96175123 2.74627478 5.38058783 1 8 C-1.125 8.6875 -1.125 8.6875 -3 9 C-2.67 7.02 -2.34 5.04 -2 3 C-1.34 3 -0.68 3 0 3 C0 2.01 0 1.02 0 0 Z " fill="#B29A63" transform="translate(263,203)"/>
<path d="M0 0 C0.66 0 1.32 0 2 0 C2 1.32 2 2.64 2 4 C2.66 4.33 3.32 4.66 4 5 C3.34 7.31 2.68 9.62 2 12 C2.66 12.33 3.32 12.66 4 13 C2.68 13 1.36 13 0 13 C0 8.71 0 4.42 0 0 Z " fill="#C2B186" transform="translate(244,124)"/>
<path d="M0 0 C1.98 0.99 1.98 0.99 4 2 C3.34 2.66 2.68 3.32 2 4 C2.37125 4.7425 2.7425 5.485 3.125 6.25 C4 9 4 9 3.25 11.1875 C2 13 2 13 0 15 C0 10.05 0 5.1 0 0 Z " fill="#6C5631" transform="translate(184,91)"/>
<path d="M0 0 C0.33 0.66 0.66 1.32 1 2 C3.64 1.67 6.28 1.34 9 1 C8.02471263 2.33617352 7.04466681 3.6688751 6.0625 5 C5.51722656 5.7425 4.97195312 6.485 4.41015625 7.25 C3.94480469 7.8275 3.47945312 8.405 3 9 C2.67 9 2.34 9 2 9 C1.67 7.35 1.34 5.7 1 4 C0.34 4 -0.32 4 -1 4 C-0.67 2.68 -0.34 1.36 0 0 Z " fill="#796B44" transform="translate(190,98)"/>
<path d="M0 0 C0.99 0 1.98 0 3 0 C3.33 2.31 3.66 4.62 4 7 C3.34 7 2.68 7 2 7 C2 9.64 2 12.28 2 15 C1.67 15 1.34 15 1 15 C0.67 10.05 0.34 5.1 0 0 Z " fill="#ECE0B6" transform="translate(244,89)"/>
<path d="M0 0 C4 1 4 1 6 3 C5.34 3.66 4.68 4.32 4 5 C4.66 5.66 5.32 6.32 6 7 C4.35 7.66 2.7 8.32 1 9 C0.67 6.03 0.34 3.06 0 0 Z " fill="#9A834B" transform="translate(192,81)"/>
<path d="M0 0 C0.66 0 1.32 0 2 0 C4 3 4 3 3.75 6.125 C3.5025 7.07375 3.255 8.0225 3 9 C2.01 9.495 2.01 9.495 1 10 C1 9.34 1 8.68 1 8 C0.34 7.67 -0.32 7.34 -1 7 C-1.33 6.34 -1.66 5.68 -2 5 C-0.68 4.67 0.64 4.34 2 4 C1.01 3.67 0.02 3.34 -1 3 C-0.67 2.01 -0.34 1.02 0 0 Z " fill="#786143" transform="translate(188,105)"/>
<path d="M0 0 C0.99 0.33 1.98 0.66 3 1 C3.33 1.99 3.66 2.98 4 4 C3.34 4 2.68 4 2 4 C2.33 4.99 2.66 5.98 3 7 C1.5625 10.1875 1.5625 10.1875 0 13 C-0.33 13 -0.66 13 -1 13 C-0.67 8.71 -0.34 4.42 0 0 Z " fill="#7E663F" transform="translate(245,160)"/>
<path d="M0 0 C0.33 0 0.66 0 1 0 C1.33951619 1.56116819 1.67132544 3.12401338 2 4.6875 C2.185625 5.55761719 2.37125 6.42773438 2.5625 7.32421875 C2.98972047 9.93712964 3.07616201 12.35813038 3 15 C2.01 15 1.02 15 0 15 C0 10.05 0 5.1 0 0 Z " fill="#6D5833" transform="translate(184,75)"/>
<path d="M0 0 C1.4540625 0.0309375 1.4540625 0.0309375 2.9375 0.0625 C2.9375 2.0425 2.9375 4.0225 2.9375 6.0625 C1.6175 6.3925 0.2975 6.7225 -1.0625 7.0625 C-2.0625 4.0625 -2.0625 4.0625 -2.0625 2.0625 C-2.7225 1.7325 -3.3825 1.4025 -4.0625 1.0625 C-3.0625 0.0625 -3.0625 0.0625 0 0 Z " fill="#BCA06B" transform="translate(201.0625,71.9375)"/>
<path d="M0 0 C2.31 0.33 4.62 0.66 7 1 C6.67 2.98 6.34 4.96 6 7 C4.35 7 2.7 7 1 7 C0.67 6.34 0.34 5.68 0 5 C0.66 5 1.32 5 2 5 C2 4.34 2 3.68 2 3 C1.34 2.67 0.68 2.34 0 2 C0 1.34 0 0.68 0 0 Z " fill="#A78B55" transform="translate(194,72)"/>
<path d="M0 0 C0.33 0 0.66 0 1 0 C1.25002209 1.74714233 1.47423194 3.49799141 1.6875 5.25 C1.87892578 6.71179688 1.87892578 6.71179688 2.07421875 8.203125 C1.9871902 11.48272731 1.19219402 12.63310671 -1 15 C-1.02693575 12.87506859 -1.04636628 10.75004088 -1.0625 8.625 C-1.07410156 7.44164062 -1.08570313 6.25828125 -1.09765625 5.0390625 C-1 2 -1 2 0 0 Z " fill="#5A4729" transform="translate(245,182)"/>
<path d="M0 0 C0.99 0 1.98 0 3 0 C3 1.98 3 3.96 3 6 C2.01 6 1.02 6 0 6 C0.33 7.98 0.66 9.96 1 12 C0.01 12 -0.98 12 -2 12 C-1.67 9.03 -1.34 6.06 -1 3 C-0.01 3 0.98 3 2 3 C2 2.34 2 1.68 2 1 C1.34 0.67 0.68 0.34 0 0 Z " fill="#8D7642" transform="translate(259,197)"/>
<path d="M0 0 C0.33 0.66 0.66 1.32 1 2 C3.57951874 2.69093896 3.57951874 2.69093896 6.5625 3.125 C7.57441406 3.29257813 8.58632813 3.46015625 9.62890625 3.6328125 C10.80259766 3.81457031 10.80259766 3.81457031 12 4 C12 4.33 12 4.66 12 5 C10.2709226 5.02725341 8.54171824 5.04650987 6.8125 5.0625 C5.36810547 5.07990234 5.36810547 5.07990234 3.89453125 5.09765625 C1.14423487 5.00486622 -1.32479591 4.62111685 -4 4 C-4 3.34 -4 2.68 -4 2 C-2.68 2.33 -1.36 2.66 0 3 C0 2.01 0 1.02 0 0 Z " fill="#685838" transform="translate(250,212)"/>
<path d="M0 0 C1.65 0 3.3 0 5 0 C5 1.32 5 2.64 5 4 C3.68 4 2.36 4 1 4 C1 5.98 1 7.96 1 10 C0.67 10 0.34 10 0 10 C0 6.7 0 3.4 0 0 Z " fill="#AB9567" transform="translate(244,143)"/>
<path d="M0 0 C1.32 0.33 2.64 0.66 4 1 C4.93423645 4.01031744 5.04449911 4.86650268 4 8 C2.68 8 1.36 8 0 8 C0.185625 7.236875 0.37125 6.47375 0.5625 5.6875 C1.22819173 2.91032625 1.22819173 2.91032625 0 0 Z " fill="#977C47" transform="translate(191,72)"/>
<path d="M0 0 C3.96 0 7.92 0 12 0 C12 0.66 12 1.32 12 2 C10.56359829 2.19573608 9.12580496 2.38127816 7.6875 2.5625 C6.88699219 2.66691406 6.08648437 2.77132812 5.26171875 2.87890625 C3 3 3 3 0 2 C0 1.34 0 0.68 0 0 Z " fill="#A58F5F" transform="translate(294,72)"/>
<path d="M0 0 C0.33 0 0.66 0 1 0 C1.33 2.31 1.66 4.62 2 7 C0.35 7.33 -1.3 7.66 -3 8 C-3 6.35 -3 4.7 -3 3 C-2.01 2.67 -1.02 2.34 0 2 C0 1.34 0 0.68 0 0 Z " fill="#9F8657" transform="translate(267,188)"/>
<path d="M0 0 C-1.4317616 0.69937202 -2.87067032 1.38412718 -4.3125 2.0625 C-5.51326172 2.63677734 -5.51326172 2.63677734 -6.73828125 3.22265625 C-9 4 -9 4 -12 3 C-8.45266434 -0.54733566 -4.72551531 -1.44220272 0 0 Z " fill="#544A41" transform="translate(235,211)"/>
<path d="M0 0 C-0.67097672 4.19360449 -2.8558394 7.40334352 -5 11 C-6.11651815 7.65044556 -5.99822121 6.32740404 -5 3 C-2.62068966 0 -2.62068966 0 0 0 Z " fill="#836833" transform="translate(267,181)"/>
<path d="M0 0 C0.33 0 0.66 0 1 0 C1.02694851 1.95825873 1.04637218 3.91662226 1.0625 5.875 C1.07410156 6.96554688 1.08570313 8.05609375 1.09765625 9.1796875 C1 12 1 12 0 14 C-0.66 14 -1.32 14 -2 14 C-2.042721 12.33388095 -2.04063832 10.66617115 -2 9 C-1.67 8.67 -1.34 8.34 -1 8 C-0.76924918 6.65252916 -0.58846937 5.29622435 -0.4375 3.9375 C-0.293125 2.638125 -0.14875 1.33875 0 0 Z " fill="#8A7349" transform="translate(267,176)"/>
<path d="M0 0 C1.32 1.65 2.64 3.3 4 5 C3.67 5.66 3.34 6.32 3 7 C2.01 6.34 1.02 5.68 0 5 C0 7.64 0 10.28 0 13 C-0.33 13 -0.66 13 -1 13 C-1.02708567 11.39592672 -1.04643483 9.7917215 -1.0625 8.1875 C-1.07410156 7.29417969 -1.08570313 6.40085938 -1.09765625 5.48046875 C-1 3 -1 3 0 0 Z " fill="#8B744C" transform="translate(245,155)"/>
<path d="M0 0 C1.98 0 3.96 0 6 0 C6 3 6 3 5 7 C3.35 4.69 1.7 2.38 0 0 Z " fill="#7C6C4A" transform="translate(312,97)"/>
<path d="M0 0 C0.66 0.33 1.32 0.66 2 1 C2.73075648 3.3140622 3.40138258 5.64828869 4 8 C0.99390037 6.99796679 -0.06176821 6.39971554 -2 4 C-2 3.01 -2 2.02 -2 1 C-1.34 0.67 -0.68 0.34 0 0 Z " fill="#9B926C" transform="translate(269,196)"/>
<path d="M0 0 C0.99 0 1.98 0 3 0 C3 2.64 3 5.28 3 8 C2.34 8 1.68 8 1 8 C-0.35439668 5.29120665 -0.06501451 2.99066732 0 0 Z " fill="#A58F60" transform="translate(265,136)"/>
<path d="M0 0 C0.33 1.32 0.66 2.64 1 4 C0.01 4 -0.98 4 -2 4 C-2 5.98 -2 7.96 -2 10 C-2.66 9.67 -3.32 9.34 -4 9 C-3.67 7.68 -3.34 6.36 -3 5 C-3.99 4.67 -4.98 4.34 -6 4 C-5.01 3.67 -4.02 3.34 -3 3 C-1.33289654 1.50014391 -1.33289654 1.50014391 0 0 Z " fill="#AE965F" transform="translate(267,132)"/>
<path d="M0 0 C2.69082872 0.17635452 5.32851446 0.61835921 8 1 C8 1.66 8 2.32 8 3 C4.625 3.125 4.625 3.125 1 3 C0.34 2.34 -0.32 1.68 -1 1 C-0.67 0.67 -0.34 0.34 0 0 Z " fill="#E4D8BB" transform="translate(281,213)"/>
<path d="M0 0 C-1.17578125 1.51953125 -1.17578125 1.51953125 -3 3 C-5.48046875 3.07421875 -5.48046875 3.07421875 -8.1875 2.6875 C-9.53908203 2.50767578 -9.53908203 2.50767578 -10.91796875 2.32421875 C-11.94857422 2.16373047 -11.94857422 2.16373047 -13 2 C-13 1.67 -13 1.34 -13 1 C-8.61414671 0.29826347 -4.44209357 -0.10834375 0 0 Z " fill="#ECDFB5" transform="translate(264,72)"/>
<path d="M0 0 C2.875 -0.125 2.875 -0.125 6 0 C6.66 0.66 7.32 1.32 8 2 C7 3 7 3 5.15234375 3.09765625 C3.1015625 3.06510417 1.05078125 3.03255208 -1 3 C-0.67 2.01 -0.34 1.02 0 0 Z " fill="#B09971" transform="translate(258,213)"/>
<path d="M0 0 C0.66 0 1.32 0 2 0 C2.66 1.98 3.32 3.96 4 6 C1.08482708 4.92598892 -0.77810176 4.22189824 -3 2 C-2.01 2 -1.02 2 0 2 C0 1.34 0 0.68 0 0 Z " fill="#C4AC76" transform="translate(264,209)"/>
<path d="M0 0 C0.33 0 0.66 0 1 0 C1 3.3 1 6.6 1 10 C-0.32 10.33 -1.64 10.66 -3 11 C-2.690625 10.113125 -2.38125 9.22625 -2.0625 8.3125 C-1.1709329 5.53290845 -0.50622993 2.86863625 0 0 Z " fill="#C4AF83" transform="translate(267,118)"/>
<path d="M0 0 C0.66 0 1.32 0 2 0 C2 1.65 2 3.3 2 5 C0.02 5 -1.96 5 -4 5 C-3.67 3.68 -3.34 2.36 -3 1 C-2.67 1.66 -2.34 2.32 -2 3 C-1.34 3 -0.68 3 0 3 C0 2.01 0 1.02 0 0 Z " fill="#DAC795" transform="translate(273,83)"/>
<path d="M0 0 C2.875 -0.1875 2.875 -0.1875 6 0 C6.66 0.99 7.32 1.98 8 3 C5.36 3 2.72 3 0 3 C0 2.01 0 1.02 0 0 Z " fill="#A08A56" transform="translate(289,85)"/>
<path d="M0 0 C-0.33 1.32 -0.66 2.64 -1 4 C-2.32 4 -3.64 4 -5 4 C-5 3.34 -5 2.68 -5 2 C-5.66 1.67 -6.32 1.34 -7 1 C-4.53721199 -0.231394 -2.7204945 -0.07159196 0 0 Z " fill="#4A3516" transform="translate(240,210)"/>
<path d="M0 0 C1.32 1.32 2.64 2.64 4 4 C3.34 4.66 2.68 5.32 2 6 C-0.125 5.625 -0.125 5.625 -2 5 C-1.34 3.35 -0.68 1.7 0 0 Z " fill="#ABA687" transform="translate(273,204)"/>
<path d="M0 0 C0.99 0 1.98 0 3 0 C3.33 2.31 3.66 4.62 4 7 C3.01 7 2.02 7 1 7 C0.34 5.02 -0.32 3.04 -1 1 C-0.67 0.67 -0.34 0.34 0 0 Z " fill="#C5B482" transform="translate(267,200)"/>
<path d="M0 0 C-1.86783571 2.80175356 -3.30274481 4.11192137 -6 6 C-6.33 4.02 -6.66 2.04 -7 0 C-4.3333581 -1.33332095 -2.83319697 -0.67102033 0 0 Z " fill="#7F6731" transform="translate(193,97)"/>
<path d="M0 0 C0.66 1.32 1.32 2.64 2 4 C0.02 4.66 -1.96 5.32 -4 6 C-4.33 5.34 -4.66 4.68 -5 4 C-4.34 4 -3.68 4 -3 4 C-2.67 3.01 -2.34 2.02 -2 1 C-1.34 0.67 -0.68 0.34 0 0 Z " fill="#927646" transform="translate(190,86)"/>
<path d="M0 0 C0.99 0 1.98 0 3 0 C3 0.66 3 1.32 3 2 C3.66 2.33 4.32 2.66 5 3 C2.69 3.33 0.38 3.66 -2 4 C-1.34 2.68 -0.68 1.36 0 0 Z " fill="#937B50" transform="translate(255,212)"/>
<path d="M0 0 C0.99 0.66 1.98 1.32 3 2 C3 2.66 3 3.32 3 4 C0.69 4.33 -1.62 4.66 -4 5 C-2.68 3.35 -1.36 1.7 0 0 Z " fill="#CCA267" transform="translate(255,138)"/>
</svg>
